<svg width="127" height="71" viewBox="0 0 127 71" fill="none" xmlns="http://www.w3.org/2000/svg">
<path d="M41.6768 67.8816L49.5741 8.8396H124.411L115.385 67.8816H41.6768Z" stroke="#ECEFF6" stroke-width="4.51276" stroke-linejoin="round"/>
<path d="M84.5491 1.31812L49.5752 7.71119H124.036L88.6858 1.31812L87.1815 4.32662H85.6773L84.5491 1.31812Z" fill="#ECEFF6" stroke="#ECEFF6" stroke-width="2.25638" stroke-linejoin="round"/>
<path d="M72.1377 25.7625L75.5223 8.8396H97.71L93.9494 26.1385C89.7375 23.4309 84.6731 25.0103 82.6675 26.5146C77.8539 22.3027 73.2659 24.3836 72.1377 25.7625Z" stroke="#ECEFF6" stroke-width="3.00851" stroke-linejoin="round"/>
<path d="M57.8474 53.5909L60.1038 37.4202M60.1038 37.4202L63.8644 43.4372M60.1038 37.4202L54.8389 42.309" stroke="#ECEFF6" stroke-width="3.76063" stroke-linecap="round" stroke-linejoin="round"/>
<path d="M72.1384 53.5909L74.3948 37.4202M74.3948 37.4202L78.1554 43.4372M74.3948 37.4202L69.1299 42.309" stroke="#ECEFF6" stroke-width="3.76063" stroke-linecap="round" stroke-linejoin="round"/>
<path d="M53.334 58.48H75.8978" stroke="#ECEFF6" stroke-width="4.51276" stroke-linecap="round"/>
<path d="M15.3525 41.9331H34.5318" stroke="#ECEFF6" stroke-width="4.51276" stroke-linecap="round"/>
<path d="M8.58398 27.6426H37.1648" stroke="#ECEFF6" stroke-width="4.51276" stroke-linecap="round"/>
<path d="M2.56641 13.3521H39.7967" stroke="#ECEFF6" stroke-width="4.51276" stroke-linecap="round"/>
</svg>
