<?xml version="1.0" encoding="utf-8"?>
<!-- Generator: Adobe Illustrator 19.2.0, SVG Export Plug-In . SVG Version: 6.00 Build 0)  -->
<svg version="1.1" id="Layer_1" xmlns="http://www.w3.org/2000/svg" xmlns:xlink="http://www.w3.org/1999/xlink" x="0px" y="0px"
	 viewBox="0 0 977.6 557.6" style="enable-background:new 0 0 977.6 557.6;" xml:space="preserve">
<style type="text/css">
	.st0{fill:#B47E62;}
</style>
<g>
	<g>
		<path class="st0" d="M244.5,189.3c1.3,1.2,2.4,1.6,2.9,2.1c1.7,2,1,4.7,0.2,6.2c0,0,0,0,0,0.1c-1.4,2.5-2.6-1.4-4.2-0.2
			c-5.3,4.2,4.8,2.9,5.5,0.8c0.8-1.4,1.6-5.2-1.1-7.9c-0.7-0.7-1.5-1.8-2.7-2.3c-3.8-1.9-7.4,0.3-10.9-3.5c-0.3-0.4,0-2.5-0.4-2.6
			c-2-0.5-2.8,1.2-2.8,3.1l-1.1-4.2c-2.7-8.1-2.1-8.1-6.8-13.1c9.1,1.4,17.8,2.3,26,2.7c118.5,5.8,221.9-14.9,297-13.6
			s134,40.7,138.5,91.7c4.5,51-47.1,75.6-47.1,75.6l4.3,4c0,0,56.7-26.1,56.1-84.6c-1-96.9-118.8-111.3-178.7-111.3
			c-85.8,0-148,28.5-270.2,28.5c-13.5,0-26.6-1.1-39.2-3.2c-2-0.7-3.9-1-5.6-1c-4.4-0.8-8.8-1.8-13.1-2.9c-0.1-3.3,1.3-8.7,0.9-9.1
			c-0.9-1-1.9,5.8-2.5,8.7c-14.2-3.7-27.5-8.6-39.4-14.6c-0.1-0.1-0.1-0.2-0.1-0.2c-0.7-1.5-6.1-8.4-4.6-3.1
			c0.1,0.4,0.1,0.7,0.1,0.9c-4.5-2.4-8.9-5-12.9-7.7c-1.8-5.2-3.8-15.5-2-16.8c0.9-0.7,6.4-0.7,5.9,1.3c-1.4,5.5,8.4,7.5,10.7,4.2
			c5-7.2,0.9-2.2,7-2.2c14.2,0,7.7-17.8,7.9-14.4c0.4,10-6.7,16.6-11.8,10.3c-2-2.4,4.7-0.5,3.5-3.9c-1.2-3.4-4.2-0.7-5.3-3.9
			c-2.4-7.1-5.3-9.4-5.3-9.4c11.2-3.6,14,3.4,16.9,3.1c0.6-0.1-4.1-4.2-4.8-4.6c-9.9-4.9-14.8,3.7-18-2.6
			c-2.8-5.6-10.9-0.3-10.9-2.8c0-8-6.5-32.8,6.8-28.2c5.1,1.8,12.1-1.3,17.3-2.2c4.6-0.8,3.5-2.3,7.2-3.5c5.5-1.8,8.9-4.7,10.2-6.6
			c2.1,0.9,4.2,1.5,6.2,1.5c11.8,0.1,9.4-10.9-1.8-10.9c0,0-0.1,0.3-0.1,0.5c0,0,4.7,7.1-3.6,3.6c-2.2-0.9-5.2-3.7-8.7-7.3
			c0.1-1.1-0.1-2.4-0.5-3.9c-0.2-0.6-1.3-0.3-2.9,0.5c-6-6-13.2-12.8-20.9-15.7c-0.8-4.2-3.5-6.4-6.4-10.1
			c-6.7-8.7-22.8-2.8-22.6,10.9c-9.9,3.7-18.5,11.4-23.3,25.2c-0.7-0.4-1.5-0.9-2.7-1.9c-1.6-1.4-4.1-0.6-5.9-2
			c-8.5-6.5,2,7.9,5.5,9.6c0.5,0.3,0.9,0.5,1.3,0.8c-1.1,4.6-1.8,9.8-2.1,15.6c-0.5,10.3,1.6,19.9,5.7,28.8
			c-6.3,6.8-7.5,17.3,1.6,21.1c3.2,1.3,7.9-3.4,9-2.6c0.6,0.4,1.4,0.6,2.2,0.7c4,4.6,8.6,8.9,13.6,12.9c-0.6,1.7-1.2,3.4-1.8,4.4
			c-5,8.3-16.6,10.5-22.6,14.4c-7.6,5.1-5.7,2-10.3-2.8c-2.7-2.8-1-8.8-3.3-3.5c-1.5,3.6-4.2,4.8-3.5,10.1c0.6,4.5-8.4,4-10.7,6.1
			c-7.1,6.3-2-3.1-7.4-5.9c0,0,5-9.1-0.9-3.1c-1.3,1.3,0.9,4,0.7,9.4c-0.3,6.1-7.4,4.4-12,5c-3,0.4-1.3,1.8-2.2,2
			c-5.3,1.1-9.1-3.9-12.5-2.2c-6.3,3.2-2.1-1.3-5.7,5c-2,3.6,0.2,5.5,0.7,8.3c0.1,0.5,2.5-2,1.1,2l-3.1,6.8
			c-1.6,2.4-0.9-1.1-5.7-6.1c-5.3-5.5-3.9,2.3-6.1-0.7c-4.4-6-8.4-6.3-4.6,1.3c1.5,3.1,0.8,5.1,2,3.9c0.4-0.4-0.1,1.9,0,2
			c3.3,5.9,6.7,2,7.2,3.5c1.8,5.7,3.8,4.3-0.7,5.3c-0.1,0,1.1,1.9-4.6,2.4c-4.3,0.3-8.6,12.3,1.8,10.9c1-0.1,3.4-5.4-2.2-3.1
			c-4.1,1.7-0.2-14.6,10.3-4.2c2.4,2.4,2.9,6.5,4.2,9c2.5,5-0.1,21.4,2.2,23.4c5.1,4.6,0.6,13.5,5.5,18.4c3.8,3.8-1.7,11.5,3.5,15.8
			c5.9,4.8-3.8,7.1,6.1,18.2c1,1.1-1.4,10.6,3.1,14.9c2.8,2.7,0.9,4.7,1.1,9.2c0.1,3.3,2.4,5.7,4.8,8.3c0.6,0.6-1,10.7,1.5,13.6
			l3.1,2.9c1,3.8-3.7,9.9,1.3,14.7c2,1.9,0.3,12.3-2,14l-2.2,1.5c-3,2.5-10.8,0.3-10.9-3.1c-0.5-14.9,2.7-6.2,5.5-6.8
			c8.2-1.6-9.2-8.2-7.9,3.3c1.1,9.5,13.3,10.7,7.7,16.6c-3.3,3.5,0-3.6-9.2,9.4c-4.3,6.1-1.5,9.8,1.1,6.6c5-6.4,2.9-4.3,5.7-3.5
			c3.6,1,9.9-13.9,10.3-10.9c1.7,14.2-3,10.3-4.4,11.8c-4,4.6-2.1,11.6-0.4,15.8c2.5,6.2,9.6,9.6,13.6,5c1-1.1,4.5-7.7,4.6-7.7
			c1,0,4.9,15.4,13.4,12.9c4.5-1.4,3.5,6.7,6.1,9.6c2.1,2.3-0.5-6.5,2.8-8.1c4.1-1.9,1.7,11.1,2.2,12.5c2.2,6.5,2.3,1.5,2.8,1.1
			c8.8-5.8-1-14.8,6.8-12.3c9.3,3.1,16.5,12.2,13.1,15.1c-5.3,4.6,6.6,15.3-7.4,22.3c-5.9,2.9-8.6-4.6-4.6-9c2-2.2,4.9,3.6,7-0.4
			c2.8-5.3-2.4-5.7-5.7-6.8c-2.7-0.9-4.6-3.6-5.7-3.7c-6.5-0.8-8.2,4.6-9.4,8.3c-3,9.1,15.7,20.9,21.5,18.2c2.2-1-0.6,9.9-0.2,11.2
			c0.6,1.7,1,3,1.3,3.9c-0.8-4,2,5.7,0,0c0.2,1,0.6,2.7,1.3,5.5c0.7,2.7,0,11.1,1.8,10.7c1-0.2,4.7,6.7,10.3,3.9
			c7.6-3.8,0.6-10.9,8.1-2.6c0,0,1.7-5,2-5.5c1.7-2.6,0.8-9.7,2.2-11.4c2.2-2.6,4.8-11.4,3.5-14.2c-0.5-1.1-1.8-4.7,1.5-3.5
			c4.5,1.6,4.6,1.2,8.3,0.7c4.4-0.6,9.8-4.5,10.5-9.4c0.4-2.8-0.4-5.4-0.2-6.8c0.2-1-1-1.2-1.3-2.4c-0.8-3.7-9.1-1.1-9.2-1.1
			c-2.2,0,2.3-7.4-9.6-8.3c-0.5,0,6.6-8.7,4.2-10.9c-1.3-1.2,4.3-4.3,5.9-3.5c0.9,0.5,1.9-0.7,2-0.4c1.5,3.5,1.5-0.3,3.3,1.1
			c4.3,3.5,9.8,0.5,10.3,1.5c1.7,3.5,3.6,3.4,4.8,5.9c2.2,4.3,1.2-7,0.9-7.9c-1.4-4.2,0.5-6.6,0.7-6.6c1.5,0,0.2-1.3,1.3-0.9
			c3.1,1.2,7.2-3.8,8.3-3.9c3-0.5,3.4-2.9,5.7-4.4c4.8-3.2,5.1-11.3,8.1-5.3c5.6,11.3,6-2.2,6.8-2.6c1.7-0.8,1.3,2.1,2.4,2.4
			c6,1.7,3.4-8.5,3.3-10.7c-0.9-18.2-5.8,0.1-6.6-9c-0.2-2.3-1.5-4.4,2.4-4.4c3.1,0,10.6-6.4,6.1-10.3c-1.6-1.4-6.3-2.9-5,1.5
			c0.9,3,3.3-2.6,4.6-0.2c2.8,5.3-7.1,9.9-10.1,7c-6.5-6.5-6.8-8.6-5.3-18c1.3-8.1,4-7.5,4.8-13.6c0.7-4.9-0.5-9.1,0.2-9
			c1.9,0.5,5.9-10.2,4.8-12.5c-1.3-2.9,2.9-6.4,4.4-13.1c0.7-3-1.2-8,2.8-10.9c1.7-1.2,2.8-9.8,1.3-11.6c-0.6-0.7,3.7-4.5,3.9-5.3
			c3-9,0.4-13.3,3.5-15.3c1.5-1,3.8-11.1,3.1-12.3c-2.5-3.9,7.3-8.9,4.2-17.7c-1-2.7,1.5-3,2.4-5c3.5-7.3,1.9-22.6,3.9-24.5
			C231.2,193.6,237.6,183.3,244.5,189.3 M139.2,98.9c0.8-2,5.2,7,4.2,9.4c-0.1,0.1-4.2,0.6-4.8,0.4C138.6,108.8,139,99.5,139.2,98.9
			 M3.5,173.6c0-0.3,2,2,2.2,2.6C6.4,178.7,3.3,174.8,3.5,173.6 M10.5,175.3c0.1-0.9,1.9,1.9,2,2C17.3,184.6,10,180.6,10.5,175.3
			 M91.3,445.5c-3.9-0.4-6.2-11.9-3.5-13.4c0.6-0.3,0.9-0.5,1.3-0.9C96.5,424.2,93.1,445.6,91.3,445.5 M198.6,377.6
			c0.1-0.1,3.4,0.7,3.5,0.9C207.2,393,195.9,383.1,198.6,377.6 M190.9,382c0.6-0.8,3.1-1.3,3.1-2c0-16.3,1.6-2.7,1.8,4.4
			C196.1,398.4,190,383.1,190.9,382 M203.2,165.7c-2.7-0.9-3-0.4-4.6,0.7c-4.3,2.8-5.5,4.7-5.5-1.1l-0.7-4c0.5,0.1,1.1,0.3,1.6,0.4
			c3.6,5.5,5.3,2.2,7,1.7c0.4,0.1,0.8,0.2,1.2,0.3C204.5,165.1,209.4,167.7,203.2,165.7 M189.1,161.3c4,8.1-0.2,6.6,1.5,8.3
			c1.5,1.5-9.2,5.2-5,0.9c1.8-1.8-3.9-2.6-3.9-2.6c-1.6-1.5-3.4-4.5-5-4.8c-5.6-1.1-2.8-4.7,1.6-6c3.4,1.1,6.8,2.1,10.2,3.1
			C188.7,160.5,188.9,160.9,189.1,161.3 M190.5,199.1c0.1,0.9,0.4,2.1,0.8,4c2.3,10.5,19.6,12-2.4,10.7c-7.1-0.4-5.1-0.7-4.6-2.4
			c1.3-4.4,3.2-17.5,4.8-14.5C189.9,198.3,190.3,199,190.5,199.1C189.9,195.4,191.4,199.8,190.5,199.1 M182.6,257.9
			c-3.1,3.2-3.1-8.2-3.3-9c-1.6-6.5,1-9,2.8-7.2c1.1,1,3.3,0.1,4.6,1.1c1.4,1.1,8.2-2.1,4.8,2.2
			C190.2,246.7,182.7,257.7,182.6,257.9 M185.6,268.8c-1.9,0.9-1.1-1.5-1.8-2.6c-1.7-3.2,3.2-8.3,4.2-8.3
			C188.9,257.8,186.4,268.5,185.6,268.8 M174.5,254.1c-1.4,2.8,1.6,5.9,0,8.8c-0.5,0.9-8-8.6-6.6-10.1c1.3-1.3,1.9-13,3.7-13.6
			c3-0.9,2.6,2.8,2.6,4.8c0,4,1.6,2.7,0.2,6.6C174.2,251.4,174.6,253.8,174.5,254.1 M166.6,319.8c1.3,2.6-1.2,4.1-2,6.6
			c-0.3,0.9-1,7.8-1.1,7.9c-0.1,0.1-4.9-0.9-5-1.1c-0.9-1.1,2.4-9,2.6-10.3c1.1-5.3,0.9-3.1,2-6.8c0.9-3.1,1.8-3.7,2.4-5
			c0.6-1.2,2-6.9,3.1-3.9c0,0,0.5,0,0.2,0.2C166.4,309.7,164.7,315.9,166.6,319.8 M158.3,322.9c-1.9,6.6,0.7-12,0.9-12.7
			c0.4-1.4,3-3.3,4.4-3.1l-2.8,9.4l-1.5,2.8C158.9,321.7,158.6,321.7,158.3,322.9 M170.1,346.5c0.3,0.3,0.1,0.9,0.2,1.3
			c-1.1,0.7,4.7,4.1,0.4,5.5C168.1,354.2,166.3,343.4,170.1,346.5 M170.8,325.1c-1.8,0.9-2.7-3.3-2-4.4c1.3-2,0.8,1.4,2.6-2.2
			C171.4,318.5,172.3,324.3,170.8,325.1 M170.1,282.6c0,0-0.4,23.9-6.1,16.2c-2.5-3.3-0.1-9.2,0.4-11.2c1.3-4.6,1.4-2.9,2.6-5.5
			c0.9-1.8,1.8-2.9,3.1-4.2c0.6-0.6,4.3-3.2,2.2-0.9C171,278.6,170.7,280.8,170.1,282.6 M166.6,260c0.8-1.7,4.3,4.4,4.6,4.8
			c3.5,5.3-2.2,9.5-3.3,11.2c-2.9,4.4-6.3,4.7-3.3-1.3c1.5-3,0.1-6.5,1.5-9.4C167,263.6,165.9,261.7,166.6,260 M171.2,236.4
			c-0.4-0.9,0.3-2.8,0.9-3.3c2.1-2.1-1.2-2.9,0.2-5c0.8-1.1,0.2-8.1,1.1-7.9c4.3,1,2.4,8.2,2,11.4
			C175.3,231.8,172.2,238.4,171.2,236.4 M167.9,200.3c0.1-0.6,5.3,1.1,5.9,1.5c1.4,1,1.7-6.9,1.5-7.2c-2.3-4.6-9.5-1.5-9.6-2.4
			c-1.4-7.2,3-5.2,7.4-5.5c0.8-0.1,0.4,2.3,1.3,2.6c2.1,0.7,0.7-2.8,0.9-3.3c5.5-11.3,5.8,13.4,4.8,16.4
			C173.9,221.7,166.4,207.4,167.9,200.3 M178.4,272.3c0-0.1,3.1-6.4,3.5-3.9c0.2,0.9-0.8,11.1-1.8,11.4
			C178.9,280.1,178.1,273.1,178.4,272.3 M182.8,230.5c-1.8-3.7,1.4-9.1,2.8-7.9c1,0.9-0.5,10.5-1.3,10.7
			C182.1,233.8,183.2,231.3,182.8,230.5 M191.3,232c-0.5-0.6-0.2-1.3-0.9-2c-3-3-1.7-1.9-0.9-3.5l0.9-2.4c4.8-9.7,4.8,9.2,4.8,9.2
			c0.8,2-2.2,1.7-2.2,1.1C193.1,232.3,192.6,233.5,191.3,232 M89.6,63c0-3.4,0.3-6.6,0.7-9.5c1.1,0.3,2.5,0.8,4.5,1.4
			c3.9,1.3,14.3,3.2,14.5,3.3c3.3,1.9,6.6-2,8.3,2c0.6,1.5,0,31.3,0,31.3c-1.5,0.7-6.8-5.3-8.1-6.1c-2-1.3-8.9-0.4-14.8,1.3
			C91.3,79,89.6,71.1,89.6,63 M93,43.6c0.2-0.4,0.4-0.9,0.5-1.3c2.8,1.7,8.6,5.2,2.4,2C95.2,44,94.1,43.8,93,43.6 M97.6,92.5
			c0.1-0.6,0.2-1,0.3-1.1c1.8-3.7,9.1,0.8,9.4,2c0.2,1-1.4,6.7-2,7c-0.7,0.4-1.6,0.5-2.4,0.4C100.9,98.1,99.1,95.4,97.6,92.5
			 M125,25.1c-0.7-0.4-8.9,0.1-8.5,2c0.8,3.9-2.5,3.9-2.8,2.2c-0.1-0.5-0.1-0.8-0.2-1.1c-0.2-0.3-0.6-0.8-1.1-1.8
			c-0.4-0.8-0.7-1.5-0.9-2.3c5.2-2.4,10.3-3.3,13.9-3.3c2.9,0,5.8,0.8,8.7,2.1c-1,3.5-3.2,6.8-6.8,8.9
			C125.9,32.7,126.3,25.8,125,25.1 M165.7,44.9c-0.1,0-0.1,0.1-0.2,0.1c-8.8,5.5-4.2,4.9-9-1.1c-1.3-1.6-0.3-2.9,0.9-4.6
			C160.3,41.5,163.1,43.5,165.7,44.9 M143.6,39.1c-2.2,2.5-11,1.6-11.6,2.8c-2.6,5.3-7.5,6.2-5.5,0.2c1.4-4-4-4.1,3.1-9.2
			c3.9-2.8,5.7-5.7,6.3-9.1c4.8,2.5,9.7,6.2,14.4,9.9C147.1,36.1,144.2,38.5,143.6,39.1 M113.2,5l1.5-1.1c4.1-1.4,4.9-1,9,0
			c5.3,1.3,8.8,5.2,10.2,9.8c-1.1-0.3-2.3-0.6-3.4-0.8c-7.1-1-14.6-0.7-21.5,1.3C109,10.9,111.1,7.2,113.2,5 M100.9,31.5
			c-0.9,1.8-1.1,3.4-0.2,5.5c0.5,1.3-3.4,2.2-6.1,3.2C96.4,36.7,98.5,33.9,100.9,31.5 M91.7,108.3c-5.9,7-14-4.7-5.8-15.4
			c1.5,3.1,3.3,6.1,5.4,9c-0.1,0.4-0.1,0.7-0.2,0.9C90,105.1,92.5,107.5,91.7,108.3 M174,155.7c-1.1,0.1-1.7-0.1-2.2-0.8
			C172.5,155.2,173.3,155.4,174,155.7 M129.4,236.8c0.8-1.7,1-0.6,1.8-3.5c0.1-0.3,1.7,0.7,1.8,0.9c1.1,3.7,3.4,3.5,2.4,5.5
			c-5,10.1-3.4,5.5-7.2,11.2c-1.4,2-4,4.2-4.6,5.5c-1.5,3-2.4,3.1-2.4,3.1c-1,1.9-2.2,2.4-3.9,4.2l-4.2,4.8
			c-0.8,0.4-7.1-4.5-7.4-5.7c-0.9-2.7-1.4-27.5-1.3-27.6c5.2-6.5-0.5,6.6,11.6,16.9c0.2,0.2,3.6-0.4,0.4-3.5
			c-5.8-5.8-8.9-15.5-6.1-16.4c0.7-0.2,1.9,2.2,2.4,2.6c6.1,4.6,3.8,5.3,7.7,4.2c1.2-0.4,0.7-0.4,2.6,0.2c3.7,1.1,1.6-1.8,2.6-3.3
			c0.6-0.9,0.9,0.6,0.9,0.7C125.6,240.1,128.6,238.5,129.4,236.8 M131.6,221.7c0-0.1,0.3-0.1,0.4,0c1.7,0.8,2.6-0.7,1.5,2.4
			C131.4,230.6,130.7,225.7,131.6,221.7 M135.9,298.8c1.2,0.3-1.3,18.2-1.8,20.6c-0.5,3.1,0.1,10.9-2.4,5.9
			c-1.7-3.5-4-11.9-11.4-15.5c-1.3-0.6-2.8-0.7-3.9-1.5C114.1,306.5,127.7,296.7,135.9,298.8 M124.3,294.9c0.3-0.6,2.9,0.7,3.5,0.9
			C129.9,296.2,121.2,301.1,124.3,294.9 M137.9,366.9c-5.4,4.2-2.8-10.8-2-10.7C136.4,356.2,138.7,366.3,137.9,366.9 M113.4,311.9
			c1.5-5.6,11.6,5.9,12.9,7.2c0.7,0.7,1.7,2.7,2,3.5c4.9,12.3,0.9,8.1-12.9,8.1c-0.2,0.3-3.2-0.2-3.3-0.2
			C106.9,331.4,112.8,314.4,113.4,311.9 M109.5,309.3c2.6-1.1,2.2,1.3,1.8,2.2C107.6,318.8,109.5,309.3,109.5,309.3 M110.8,337.3
			c1-1,18.4-0.6,19.9,0c1,0.4,0.3,3-0.2,3.1C128.5,340.6,106.2,341.8,110.8,337.3 M121.7,296.2c-1.5,6-6.2,8.2-12.7,7.9
			c-1.8-0.1-1.5-20.3-2.2-22.1c-0.8-2.2,3.6-8.6,4.8-9.9c1.3-1.3,6.9,7.4,7.7,8.5C120.7,282.8,122.5,293.1,121.7,296.2 M106.6,267
			c1.6,0.1,2.5,1.6,3.5,2.8c0.8,1-0.9,1.4-1.3,2c-2.5,3.8-2.4,1.2-2.2,1.1C106.6,272.2,105.8,267,106.6,267 M100.7,192.4
			c-8.3,2.8-6.7-8-3.1-11.4c4.2-4,1.5,11.2,5.3,4.2c3.4-6.3,1.1,1.4,8.1-5.9c3.5-3.6-6.9-10.2-5.9-11.4c1.5-1.7-0.9-5.8,2.2-1.5
			c0.8,1.1,1.9-3.1,0.2-4.4c-1.1-0.8,2.9-5.5,2.2-7.4c-0.5-1.2,6.5-12.9,8.1-12.9l0.7,40.5c0,7.1,5.6,23.7,0.4,28.9
			c-3.1,3.2-14.7,0-15.1,0.7c-0.4-0.1-1,0.1-1.3-0.2C102.4,211.4,105.7,190.7,100.7,192.4 M81,372.1c1.9-0.6,4.2,0.8,4.8,3.1
			C86.3,376.9,78.8,372.8,81,372.1 M79.2,368.4c0.3-2.4,2.1-5.9,4.2-5.9c0.2,0,0.6,0,0.7,0.2C85.9,370.1,79.1,369.8,79.2,368.4
			 M81.6,361c-1.2,1.5-9.9-5.3,0.7-10.5c6.8-3.4,12,5.1,9,11.2C87.2,369.9,86.9,354.1,81.6,361 M61.1,262.7
			c-2.3-3.1,1.1-11.9,2.2-9.4c3.4,7.6,6.3,5.5,8.1,14.4c1.9,9.6-1.8,12.8-0.4,20.8c0.6,3.5,1,5.6,4.6,7.9c0.7,0.4-4.9,7.1-6.1,6.1
			c-2.9-2.4-1.9-0.9-0.2-5.7C71,291.4,61.4,263.1,61.1,262.7 M56.5,243c0.5,0.2,1.7,3,2,3.5c2.2,3.3,0.9,7.2,0,7.9
			C57.6,255.1,55.3,242.6,56.5,243 M55.8,227.6c-0.4,0,0.8-6,1.8-5.9c1.2,0.1,2.4,6.2,2.6,7c0.7,2-0.3,3.8-1.1,1.3
			C57.9,226.6,59.4,227.7,55.8,227.6 M59.1,241.4c-0.4-0.9,0.4-4.6,1.1-5.5c1.1-1.4,1.7,6.9,0.9,8.1
			C60.5,244.9,59.3,241.8,59.1,241.4 M83.4,196.8c2.3,7.3,1.1,1.9,5.3,3.7c1.3,0.6-0.3,3.4,0.2,4.8c1.7,5,1.4,6-5.5,5.5
			c-6.4-0.5-17,2-11.6-3.9c4-4.5,4.9-16.1,0-19.9c-0.8-0.6,2.7-1.6,3.5-2.6c3.8-4.9-7.6-5.6-3.5-1.5c1.3,1.3-2.6,0.4-2.6,0.4
			c-9.4-2,10.5-21.8,17.7-0.2C90.3,193.3,80.6,187.9,83.4,196.8 M97.6,302.5c1.9,8.1-2,9.1-3.1,7.9c-0.4-0.4-0.2-1.1-0.4-1.5
			c-1.6-3.2-4.1-5.6-7-8.8c-2.5-2.7-2.8-13.2-3.5-17.9c-0.4-3-1.5-7.3-1.8-10.3c-1.1-10.9-2.2-6.6,0.7-12.3
			c6.6-13.1,3.1-9.9,10.1-5.3c2.2,1.5,3.5,9.2,2.4,11.8C94.7,266.8,97.2,300.9,97.6,302.5 M93,316.1c2.1-2,3.4,8.6,3.7,9.4
			c2.5,7.5,0.9,4.5-2.8,5.9C88.1,333.6,90.7,318.4,93,316.1 M89.8,316.7c-1,0.7-3.2-11.3-2.4-12.3c1-1.2,6.8,8.2,5.9,8.5
			C91.4,313.8,91.2,315.8,89.8,316.7 M75.5,315.4c-1.5-5.9-6.6-10.2-0.2-14.9c0.2-0.1,0.5-0.1,0.7,0c1,0.8,3.9,26.9,3.5,26.9
			L75.5,315.4z M75.1,332.1c-0.9-1-5.1-20.8-4.8-21.2c0.3-0.5,1.7,2.8,1.8,2.8c2.4,4.9,2.8,10,4.4,14.7
			C77.7,332.2,76.3,333.5,75.1,332.1 M78.8,237.1c0.1,0.2-0.5,4.6-2.2-3.7c-1.6-8.2-1.9-9.1,1.8-12C80.1,219.9,75.3,230,78.8,237.1
			 M78.4,240.6c1.4-0.5,2.3,0,2.8,1.3c0.9,2.1,2.9,3.4,4.4,5.3c0.9,1.1-3.7,9.7-5.3,9.9C79.4,257.1,77.1,241,78.4,240.6 M82.1,230.3
			c-3.4-2.1-2.2-1.1-1.3-5c1.2-5.1,2.4-2.9,4.8,1.3c3.2,5.6,3.7,10.9,2.2,18.6c-0.3,1.4-2.6-0.8-2.8-1.8l-0.7-0.2l-2.2-3.5
			C81.5,238.8,86,232.7,82.1,230.3 M92.2,250.8c-5.3-2.9-1.8-5.7-1.3-9.6c-0.3-0.2,0-2.3,0.2-2.8C91.4,237.1,97,253.5,92.2,250.8
			 M88.9,226.5c-0.3-0.6-3.3-4.9-2.8-5c1.1-0.4,3.4-0.2,3.9,0.4C90.5,222.7,92.2,233.9,88.9,226.5 M64.4,240.3
			c3.6-2.9,3.8,7.2,3.9,8.8c0.1,1,2.1,6.9,0.9,7.4c-1.5,0.7-4.3-5.2-5.3-6.1c-0.7-0.7-0.4-7.5,0.4-7.7
			C64.6,241.7,63.4,241.1,64.4,240.3 M66.3,237.3c-0.9,1-1.2-0.3-1.8-1.1C61.7,231.8,69.2,234.1,66.3,237.3 M61.9,220.6
			c2.2-1.2,2.5,4.3,2.6,5C67.2,237.3,59.5,222,61.9,220.6 M73.3,342.6c13.9,0.9,8.7,2,2.8,7.4c-2.1,1.9-5.3,9.6-5.3,9.6
			C68.1,359.4,66.5,342.1,73.3,342.6 M75.7,362.9c0.6-0.8,1.6-0.1,2,0.7C79.6,367.4,73.2,366,75.7,362.9 M92.2,369.1
			c2.3,0.1,0.3-4.1,0.7-5c2.4-5.4-0.5-8.4-0.4-14c0,0,8.2,8.8,4.8,10.5C97.2,381.4,80.5,368.4,92.2,369.1 M97.6,318.7
			c-0.4-1.8-2.5-5.1-0.4-5.9C99.6,311.9,97.6,318.7,97.6,318.7 M113.8,231.6c-1.4,0.8-2-1.8-2.4-3.1c-0.5-1.7,1.1-2.6,2-3.7
			C114.3,223.6,115,231,113.8,231.6 M103.5,222.4c0.3-0.4,0.1-0.1,0.4-0.2c3.2-0.9,1.3,5.2,1.3,5.5c-0.4,4.9-2.7,5-1.8,1.3
			C104.3,228.7,102.8,223.4,103.5,222.4 M50.8,180.4c1.3-9.5,0.5-1.2,3.9-3.7c0.9-0.7,1.9-2,2.8-2.8c3.1-2.6,1.5,11.8,5.3,0.9
			c2.1-6-9.8-13.3-2.6-9.9c3.6,1.7,1.9,1.5,3.7,5.5c1.4,3.1,5,0.1,5.9-1.8c1.4-2.7-1.6-15.7,3.3-14.5c0.4,0.1,1.6,2,1.8,2.6
			c0.7,2.9,4.4,0.3,2.4-3.1c-2-3.3,29.9-13.5,33.1-17.5c9.9-12.4-2,9.9-3.9,12.5c-1.5,2-7.4-10.1-6.4-3.5c0.7,4.5-5.8,7.5-3.3,13.1
			c1.8,4.1-2.1,2.5-3.3,4.8c-0.1,0.3-3.4,8.6-3.9,9.2c-2,2.1,0,3-1.3,5.9c0,0-9.2-10.3-16.2-6.8c-12.6,6.3-2.9,14.2-5.9,14.2
			c-3.8,0-4-1.3-5.5,2.8c-2.6,7.1,6,6.5,7.2,5c2-2.3,2.5,7.3-2.6,13.4c-3,3.6-11.2-2.1-11.2-5.3C54.1,186.3,48.5,196.2,50.8,180.4
			 M42.7,163.5c8.8-2.5,0,8.5,0,8.5C42,170.3,40.1,164.2,42.7,163.5 M26.5,159.3c6.7,3.9,3,1.9,0.9,5.9c-0.7,1.4-1.9,0.6-2.6,1.5
			C19.1,174.1,19.7,155.4,26.5,159.3 M21.2,187.1c1.6-13.1,3.3-1.4,4.2-4.2c1.3-4,1.6,2.3,1.8,2.4c3.4,1.7,4.2-7.9,4.6-9
			c0.5-1.2,1.5,1.6,1.8,1.8c2.1,1.5,6-6.1,6.3,4.6c0.1,3.2,2.5,2.3-2.6,3.1c-6.5,0.9-4.4,3.4-7.2,6.8c-0.6,0.8-1.2,7.5,4.4,7.2
			c7.7-0.4,2.1-2.1,8.8-2.6c2.2-0.2,3.6,8.3,3.9,11.2C47.7,213.5,18,213,21.2,187.1 M49,314.8c-2.3-2-1.2-10.2-3.3-14.4
			c-5.2-10.4-0.7-11-5-17.5c-4.4-6.6-0.3-10.3-4.2-16c-4.5-6.8,0.2-10.3-4.6-17.5c-3.4-5.1-0.1-10.3-3.7-15.8c-4-6,0.4-8-3.1-14.9
			c-0.9-1.8-4.9-17.1-0.4-11.8c0.6,0.7,4,2.3,4.4,2.8c2.7,3.4,9.8,0.9,12.3,3.7c5,5.8,2.1,17.5,5.5,25.6c6.9,16.3,3.1,14.3,5.3,20.8
			c3.8,11.3,3.3,20.7,5.5,23.6c3.5,4.8-2,8.3-0.7,14.2c0.7,3,4.3,3.6,2.6,7c-4.1,8.1,2.9,15.5,1.8,17.7c-6.2,12.3,10.1,9.1-3.1,25.8
			c-0.7,0.8-2.6-0.4-3.1,0.2c-0.5,0.8,1.1-13.2-2-17.7C50.4,326.6,53.8,319.1,49,314.8 M59.5,396.4c-1.8,7.5-7.5,5-12,2
			c-0.4-0.3-0.2-0.9-0.4-1.3c-7-14,4.5-14.4,2.6-10.7c-1.8,3.7,2.8,4.5,2.8,3.7C53.3,382.4,61.3,389.1,59.5,396.4 M58,369.3
			c-1.5-1-4.4,1.1-4.4,1.1c-3.9,1.3,6.2-30.5,10.1-14.7C66.1,365.7,61.6,371.8,58,369.3 M67.4,396.7c0.6-0.1,6.2,5.9,6.8,6.8
			C79,411.1,64.6,397.1,67.4,396.7 M113.2,417c-15.3-13.1-24.8-13.3-33.1-29.8c-0.4-0.7-5.7-4.8-5.7-4.8c0-5.6-0.5-4.1-3.7-6.6
			c-1.4-1.1,1.6-6.6,0.4-7.2c0.8-5.6,10.5,16.7,23.9,7.4c4.1-2.8,7,4.1,5,7.4c-1.7,2.8,5.6,7.9,3.7,9.2c-5.7,4,5.8,17.3,7,15.3
			C114.1,402.5,113.6,417.4,113.2,417 M125,412.4c-3.1-0.8-4.9-13.6,0.2-13.6c0.7,0,3.4,1.2,2.6,2
			C125.2,403.5,129.6,413.6,125,412.4 M142.7,442.6c0.5-1.6,8-4.9,6.3-6.4c-0.2-0.1-3.4-1.2-0.7-1.5c9.9-1.1,7,18.3-7.7,16.9
			C129.5,450.5,141.6,445.9,142.7,442.6 M139.9,433.2c1.8,5.9-7.4,11.8-7.4,11.8c-0.8-4.2-6.8-13.5-4.6-15.8
			c0.9-0.9,1.5-1.7,1.9-2.3c-3.3-2.5,2.2-3.6,0,0c0.8,0.6,1.9,1.2,3.8,1.9c0.4,0.2,0.3,0.8,0.2,0.9
			C131.4,433.7,139.5,432,139.9,433.2 M138.4,380.9c-3.7,18.6-3.8,6.6-5.5,4.2c-0.6-1-4.1,9.8-5.5,10.7c-9.3,6.2-8,11.5-8.1,11.6
			c-0.5,0.3-3.5-6.3-3.1-6.8c3.9-3.9-3.4-7.7,0.4-13.1c2.8-4-4.8-0.7-3.9-1.3c4.1-3-0.9-5.4,2.8-7.9c8.5-5.7,10.1-20.6,0.4-15.8
			c-2,1-3.1-16-3.1-16c4.4-1.2,10.4,0.4,14.9,0.4c5.8,0.1,1.7,6.8,1.1,10.9l-0.4,0.9C123.8,387.2,139.5,375.2,138.4,380.9
			 M117.1,364.3c4.6-1.7,4.2,7.5,1.1,9.6c-4.3,2.9-6.1-6.6-3.3-5.7C119.3,369.6,116,364.7,117.1,364.3 M138.8,278
			c-1.8,9.1,1.4,12.4-5.5,14.7c-9.7,3.2-9.1-4.5-9.9-6.1c-1.5-3.1,0.6-6.5,1.3-8.8c1-3.1,6.1-7,6.6-8.1c0.4-0.9,4.6-5.3,5.3-4.2
			C138.8,269.5,141.2,266,138.8,278 M141,257.2l-4.2,4.6c-1.6,1.4-6-3.9-6.6-3.3c-1.8,1.8,1.1,3.3,2.4,4.4c2.3,1.8-2,4.4-2.8,4.8
			c-1.2,0.6-1.7,2.3-2.2,3.1c-0.4,0.7-2.2,1.1-2.6,1.5c-0.2,0.2-0.3,1.6-0.4,1.8c-2.7,2.9-1.3,7.8-4.8,3.3
			c-6.1-7.7-6.3-6.7-3.3-10.5l9.2-9.8c5.2-5.2,6.4-7.7,10.5-13.1c0.3-0.4,1-3.4,1.3-3.5c1.6-0.4,3,0,5,0.2
			C143,240.6,141.5,256.1,141,257.2 M143.4,233.8c2.9,4.9-5.6,6.4-4.4,2c2.1-7.5-4.2-12.2,0.7-14.7c0.7-0.3,5-0.8,5,0.4
			C145.1,227.4,142,231.4,143.4,233.8 M137.5,212.8c-14.5,0-9.5,0.6-9.9-22.8c-0.9-59.4-5.8-57.5,11.2-43.3
			c7.3,6.1-6.9,20.4,7.7,24.1c0.2,0,4.2-6,2.6-1.3c-2,6.1,2.9,11.4,3.1,9.4c2.4-27.6,6.3,14.9,4.6,10.9c-1.5-3.5-3.9-8.6-9-5.3
			c-10.1,6.7,3,27.3-2.4,29.6L137.5,212.8z M150.4,352c-4.5,4.9-3.2-5.6-2.6-5.7C159.4,344.6,158.9,342.7,150.4,352 M151.7,194.1
			c0.1-0.1,0.3,0.1,0.4,0c7-3.5,4,6.6,2.6,9.4C152.3,208.4,149.5,199.2,151.7,194.1 M146.7,372.8c-3.5-4.7,0.8-4.2,2.6-2.2
			C154.8,376.6,146.8,372.9,146.7,372.8 M151.3,365.1c1.6-4.2-2.5-12.6,3.7-15.3c3.1-1.4,5.8-4.4,6.8,0.2c4.7,21.1-5,5.4-6.8,16
			C153.4,375.4,150.7,366.8,151.3,365.1 M156.1,407.2c2.6-0.7,3.8-0.1,4.4,1.8C161.7,412.7,143.9,410.6,156.1,407.2 M175.4,379.1
			c0,0-6.8,3.4-5.5,10.3c0.1,0.6,0.5,10.1-2.4,4.6c-2.3-4.3-14,0.1-8.8,4.6c8.5,7.2-5.7,6.8-5.7,6.8c-0.9-12.8,3.5-7.7,7-14.2
			c0.5-0.9,1.5-1.5,1.8-2.2c1.6-4.3,10.1-13.2,10.3-14.2c1.7-7.1,4.9,4.4,10.7,7.7C183.7,383,175.4,388.8,175.4,379.1 M187.6,368.6
			c-5.9-9.7-9.2,6.3-3.3,2.8c7.2-4.2-1.1,14.7-3.3-0.2c-0.1-1-3.2,3.7-4.8,0.4c-7.3-14.6-1.5-12.9,1.1-20.6
			C180.8,340.7,193.6,378.4,187.6,368.6 M222,222.4c0.6,1.5-8.5,9.3-4.8,16.6c0.8,1.5-7,9.2-5,15.8c0.3,1.1,1.5,2.6,1.5,2.6
			c-2.5,2.5-8.4,7.7-6.8,12.5c2.5,7.1-6.1,10.1-4.6,19c1,5.8-7.2,8.5-4.8,15.3c2.5,7.1-7.5,9.8-4.6,17.7c1.4,3.8-0.6,3.2-2.2,6.1
			c-2.8,5.2,0.3,11.2-1.3,14.4c-1.3,2.6-1.6,14.8-4.2,10.3c-3.2-5.6-11-6.4-13.1-8.8c-1-1.1,4.9-18.4,5.3-20.8
			c1.2-8.9,21.8-85.8,25.4-96.8c4.5-13.5,0.3-10.7,8.5-12.9c2.6-0.7,4.8-1.6,7-3.3C231.8,200.2,217.2,211.5,222,222.4 M226.6,191.1
			c-3.4,8.1-0.8,12.1-10.5,18.6c-5.7,3.8-18,3.5-21.2-3.1c-1.2-2.4-4.7-7.5,0.4-8.5c4-0.8-1.3-11.9,6.6-7.2c1.5,0.9,7.4,5.5,1.3,3.5
			c-3-1-1.9,8.1,1.8,4.6c5.9-5.7-3-12.2-5.9-10.7c-4.3,2.2-3.8-2.9-6.6-1.8c-8.1,3.4-2.2-11,0.7-13.8c9-8.9,16.1-1.8,13.1,2.6
			c-3.5,5.3-1.7,2.9-2.6,1.1c-2-3.9-8.3,1.9-2.8,4.4c6.5,2.9,5-5.7,10.1-3.5c7.5,3.3,2.1-3.6,5.9-4.8c3.4-1.1-3,5.2-0.4,9
			c0.2,0.3,4.8,6.7,5,2.6C222,169.8,227.4,189.1,226.6,191.1"/>
		<path class="st0" d="M113.4,28.2C114.3,29.2,113.2,26.1,113.4,28.2"/>
		<path class="st0" d="M725.8,345.3c0,0-7,13-17.8,31.9c-14,16.1-64.5,73.5-69.5,67.1c-0.6-0.8,7.8-13.6,13.2-22.7
			c8.1-13.6,15.1-26.2,21-36.5c11.8-20.5,23.8-36.4,13.8-41.9c-19.2-10.5-63.7,13.9-80.2,23.7c15.2-41.9-24.1-27.8-58.2-11l1.9,5.3
			c0,0,30.9-14.7,21,0.3c-1.6,2.4-11.3,19.8-15.7,27.7c-18.9,22.5-61.4,65.1-89.8,65.1c-15.4,0-11.8-17.5-0.8-37.9l0.5,0.6
			c17.7,0,73.1-17.9,75.2-53.8c2.2-36.3-68.1-30.9-100,24.4l0,0l0,0c-20.9,36.2-26.4,76.7,15.4,76.7c29.4,0,58.4-20.8,80.2-41.2
			l-20.6,35.6h40.5c0,0,14.2-24.3,36.8-63.5c3.3-5.8,6.1-11,8.4-15.8c9-3.5,22.2-8.7,24.8-9.8c25-11,4.7,18.1-1.2,28.1
			c-12.8,21.9-29.8,45-28.8,55.6c0.6,6.2,4.5,13.7,25.3,9.9c23.4-4.3,50.7-33.6,69.8-56.3c-15.8,26.7-34.8,57.2-51.9,80.5
			c-38.6,52.7-84.1,67.1-84.1,67.1s-4.9,3.3,1.6,3.3c91.4,0,132.3-74,174.7-150.8c10.4-18.8,33.9-59.9,33.9-59.9L725.8,345.3z
			 M522.9,353.2c13.5,5.8-5.8,43.2-53.2,54.4C469.7,407.6,509.4,347.4,522.9,353.2"/>
		<path class="st0" d="M761.3,336.3c10.6,0,19.3-8.6,19.3-19.3c0-10.6-8.6-19.3-19.3-19.3c-10.6,0-19.3,8.6-19.3,19.3
			C742,327.6,750.7,336.3,761.3,336.3"/>
		<path class="st0" d="M973.7,386.2c0,0-63.5,67.7-69.3,60.2c-0.6-0.8,9.6-15.9,14.9-24.9c8.1-13.6,10.4-18.3,16.4-28.5
			c34.6-58.4-24.1-53.5-33.4-52.3l0.1-0.1c-2.2,0-4.5,0.2-6.9,0.3l14-27.4c-23,0-51.6,17.1-25.1,33.5c0,0-24.9,55.9-59.7,87
			c-0.2,0.2-0.5,0.4-0.7,0.6c-0.2,0.2-0.4,0.3-0.6,0.5c-1.9,1.6-3.8,3.2-5.7,4.7c-6.9,5.3-14.2,9.4-21.6,11.9l0,0.3
			c-4.4,1.5-8.7,2.3-12.8,2.3c-15.4,0-11.8-17.5-0.8-37.9l0.5,0.6c17.7,0,73.1-17.9,75.2-53.8c2.2-36.3-68.1-30.9-100,24.4l0,0v0
			c-20.9,36.2-26.4,78,15.4,76.7c33.2-1,56.1-19.7,72.5-39.6c29.8-33.8,46.5-76.9,46.5-76.9s4.2,0.1,5.2,0.2l0,0l0,0
			c17.8,0.2,16.7,7.3-6,48.9c-12.2,22.3-29.2,45.6-28.2,56.2c0.6,6.2,4.5,13.7,25.3,9.9c36.1-6.6,78.3-62.3,88.9-71.6L973.7,386.2z
			 M840.7,353.2c13.5,5.8-5.8,43.2-53.2,54.4C787.5,407.6,827.2,347.4,840.7,353.2"/>
		<path class="st0" d="M459.3,332.4c-4.2,9-10.4,18.3-20.6,26.3l1.2,3c46.2-15.3,55-60.5,41-63.7c-10.6-2.4-12.1,10.1-18.1,26h-24.9
			c20.5-34.3,42-61.4,61.3-82.2c27.8-0.2,49.4,5.7,58.3,18.4c12.5,17.8-15,45.7-21.3,58.5l7.9,0c34.9-7.3,108.5-66.3,71.7-75.3
			c-38.1-9.2-73.8-12.7-106.5-12.2c28.9-29.2,51-43.1,53.4-44.6l-2.2-3.1c-38.9,7.8-75.8,30.1-100.9,51.6
			c-95.6,13.6-156.5,58.7-162,73.1c-1.7,4.4,10.1,8.2,16.4,4.3c36.3-31.9,86-53.6,131.4-63.9c-5,5.3-9.2,10.3-12.2,14.9
			c-12,17.9-23.3,39-34.5,60.6h-66.5v8.4h62.1c-32.3,62.2-64.6,122.3-110.2,122.3c-55.1,0-37.5-62.2-1.7-62.2
			c24.1,0,26,22.7,26,22.7h4.9c0,0,9.2-49.7-32.1-49.7c-52.5,0-86,108.6,5.8,105.2c64.8-2.4,88.1-40.9,145.9-138.3H459.3z"/>
	</g>
</g>
</svg>
