<svg width="1440" height="331" viewBox="0 0 1440 331" fill="none" xmlns="http://www.w3.org/2000/svg">
<path d="M10.809 228.341C154.329 158.337 262.419 151.786 312.26 152.08C391.766 152.568 451.576 161.857 451.576 161.857C517.992 172.123 540.09 183.953 596.897 184.344C643.616 184.637 679.646 176.913 703.786 171.634C784.133 154.035 786.896 134.774 857.515 122.748C904.474 114.731 945.428 116.1 970.409 116.882C1015.93 118.349 1030.7 123.433 1065.29 126.659C1108.64 130.668 1234.27 142.4 1311.49 90.4841C1329.75 78.165 1353.41 56.9487 1400.37 37.6879C1416.7 30.9417 1430.75 26.6398 1440 24C1440 126.366 1440 228.634 1440 331C959.96 330.707 480.04 330.316 0 330.022C3.603 296.096 7.20601 262.267 10.809 228.341Z" fill="#A25F6A"/>
<path d="M0 70.6274C13.6942 75.2656 33.9195 83.0662 56.8837 95.9267C95.3328 117.431 107.131 133.876 140.102 153.904C140.102 153.904 179.71 177.833 222.268 187.637C285.788 202.184 324.869 177.728 375.011 169.717C468.974 154.642 481.826 216.204 603.599 236.127C762.979 262.165 857.68 175.831 973.343 206.611C983.877 209.458 1028.44 222.213 1091.32 231.911C1122.5 236.76 1138.1 239.079 1152.42 239.29C1218.26 240.133 1250.39 212.198 1327.29 187.637C1352.88 179.415 1391.02 169.189 1440 163.392C1440 219.261 1440 275.131 1440 331C959.965 331 480.035 331 0 331C0 244.244 0 157.383 0 70.6274Z" fill="#B86D79"/>
<path d="M0 226.64C116.506 255.734 184.345 275.236 226.481 288.834C232.38 290.732 245.443 295.054 263.35 297.268C325.501 305.068 374.8 279.874 387.652 274.076C428.84 255.734 510.057 253.204 687.871 329.946C458.546 329.946 229.326 329.946 0 329.946C0 295.475 0 261.111 0 226.64Z" fill="#D38592"/>
</svg>
